%TF.GenerationSoftware,KiCad,Pcbnew,9.0.3*%
%TF.CreationDate,2025-07-10T08:35:26-07:00*%
%TF.ProjectId,Hackpad,4861636b-7061-4642-9e6b-696361645f70,rev?*%
%TF.SameCoordinates,Original*%
%TF.FileFunction,Profile,NP*%
%FSLAX46Y46*%
G04 Gerber Fmt 4.6, Leading zero omitted, Abs format (unit mm)*
G04 Created by KiCad (PCBNEW 9.0.3) date 2025-07-10 08:35:26*
%MOMM*%
%LPD*%
G01*
G04 APERTURE LIST*
%TA.AperFunction,Profile*%
%ADD10C,0.050000*%
%TD*%
%ADD11C,0.150000*%
G04 APERTURE END LIST*
D10*
X49100000Y-31000000D02*
X111900000Y-31000000D01*
X111900000Y-99100000D01*
X49100000Y-99100000D01*
X49100000Y-31000000D01*
D11*
X110204819Y-66049999D02*
X110204819Y-66240475D01*
X110204819Y-66240475D02*
X110252438Y-66335713D01*
X110252438Y-66335713D02*
X110300057Y-66383332D01*
X110300057Y-66383332D02*
X110442914Y-66478570D01*
X110442914Y-66478570D02*
X110633390Y-66526189D01*
X110633390Y-66526189D02*
X111014342Y-66526189D01*
X111014342Y-66526189D02*
X111109580Y-66478570D01*
X111109580Y-66478570D02*
X111157200Y-66430951D01*
X111157200Y-66430951D02*
X111204819Y-66335713D01*
X111204819Y-66335713D02*
X111204819Y-66145237D01*
X111204819Y-66145237D02*
X111157200Y-66049999D01*
X111157200Y-66049999D02*
X111109580Y-66002380D01*
X111109580Y-66002380D02*
X111014342Y-65954761D01*
X111014342Y-65954761D02*
X110776247Y-65954761D01*
X110776247Y-65954761D02*
X110681009Y-66002380D01*
X110681009Y-66002380D02*
X110633390Y-66049999D01*
X110633390Y-66049999D02*
X110585771Y-66145237D01*
X110585771Y-66145237D02*
X110585771Y-66335713D01*
X110585771Y-66335713D02*
X110633390Y-66430951D01*
X110633390Y-66430951D02*
X110681009Y-66478570D01*
X110681009Y-66478570D02*
X110776247Y-66526189D01*
X110633390Y-65383332D02*
X110585771Y-65478570D01*
X110585771Y-65478570D02*
X110538152Y-65526189D01*
X110538152Y-65526189D02*
X110442914Y-65573808D01*
X110442914Y-65573808D02*
X110395295Y-65573808D01*
X110395295Y-65573808D02*
X110300057Y-65526189D01*
X110300057Y-65526189D02*
X110252438Y-65478570D01*
X110252438Y-65478570D02*
X110204819Y-65383332D01*
X110204819Y-65383332D02*
X110204819Y-65192856D01*
X110204819Y-65192856D02*
X110252438Y-65097618D01*
X110252438Y-65097618D02*
X110300057Y-65049999D01*
X110300057Y-65049999D02*
X110395295Y-65002380D01*
X110395295Y-65002380D02*
X110442914Y-65002380D01*
X110442914Y-65002380D02*
X110538152Y-65049999D01*
X110538152Y-65049999D02*
X110585771Y-65097618D01*
X110585771Y-65097618D02*
X110633390Y-65192856D01*
X110633390Y-65192856D02*
X110633390Y-65383332D01*
X110633390Y-65383332D02*
X110681009Y-65478570D01*
X110681009Y-65478570D02*
X110728628Y-65526189D01*
X110728628Y-65526189D02*
X110823866Y-65573808D01*
X110823866Y-65573808D02*
X111014342Y-65573808D01*
X111014342Y-65573808D02*
X111109580Y-65526189D01*
X111109580Y-65526189D02*
X111157200Y-65478570D01*
X111157200Y-65478570D02*
X111204819Y-65383332D01*
X111204819Y-65383332D02*
X111204819Y-65192856D01*
X111204819Y-65192856D02*
X111157200Y-65097618D01*
X111157200Y-65097618D02*
X111109580Y-65049999D01*
X111109580Y-65049999D02*
X111014342Y-65002380D01*
X111014342Y-65002380D02*
X110823866Y-65002380D01*
X110823866Y-65002380D02*
X110728628Y-65049999D01*
X110728628Y-65049999D02*
X110681009Y-65097618D01*
X110681009Y-65097618D02*
X110633390Y-65192856D01*
X111109580Y-64573808D02*
X111157200Y-64526189D01*
X111157200Y-64526189D02*
X111204819Y-64573808D01*
X111204819Y-64573808D02*
X111157200Y-64621427D01*
X111157200Y-64621427D02*
X111109580Y-64573808D01*
X111109580Y-64573808D02*
X111204819Y-64573808D01*
X111204819Y-63573809D02*
X111204819Y-64145237D01*
X111204819Y-63859523D02*
X110204819Y-63859523D01*
X110204819Y-63859523D02*
X110347676Y-63954761D01*
X110347676Y-63954761D02*
X110442914Y-64049999D01*
X110442914Y-64049999D02*
X110490533Y-64145237D01*
D10*
X111900000Y-99100000D02*
X111900000Y-99100000D01*
X112486420Y-31000000D02*
X49600000Y-31000000D01*
X111900000Y-99100000D02*
X111900000Y-31000000D01*
X111900000Y-99100000D02*
X111313579Y-97973496D01*
X111900000Y-99100000D02*
X112486421Y-97973496D01*
X111900000Y-31000000D02*
X112486421Y-32126504D01*
X111900000Y-31000000D02*
X111313579Y-32126504D01*
D11*
X110204819Y-66049999D02*
X110204819Y-66240475D01*
X110204819Y-66240475D02*
X110252438Y-66335713D01*
X110252438Y-66335713D02*
X110300057Y-66383332D01*
X110300057Y-66383332D02*
X110442914Y-66478570D01*
X110442914Y-66478570D02*
X110633390Y-66526189D01*
X110633390Y-66526189D02*
X111014342Y-66526189D01*
X111014342Y-66526189D02*
X111109580Y-66478570D01*
X111109580Y-66478570D02*
X111157200Y-66430951D01*
X111157200Y-66430951D02*
X111204819Y-66335713D01*
X111204819Y-66335713D02*
X111204819Y-66145237D01*
X111204819Y-66145237D02*
X111157200Y-66049999D01*
X111157200Y-66049999D02*
X111109580Y-66002380D01*
X111109580Y-66002380D02*
X111014342Y-65954761D01*
X111014342Y-65954761D02*
X110776247Y-65954761D01*
X110776247Y-65954761D02*
X110681009Y-66002380D01*
X110681009Y-66002380D02*
X110633390Y-66049999D01*
X110633390Y-66049999D02*
X110585771Y-66145237D01*
X110585771Y-66145237D02*
X110585771Y-66335713D01*
X110585771Y-66335713D02*
X110633390Y-66430951D01*
X110633390Y-66430951D02*
X110681009Y-66478570D01*
X110681009Y-66478570D02*
X110776247Y-66526189D01*
X110633390Y-65383332D02*
X110585771Y-65478570D01*
X110585771Y-65478570D02*
X110538152Y-65526189D01*
X110538152Y-65526189D02*
X110442914Y-65573808D01*
X110442914Y-65573808D02*
X110395295Y-65573808D01*
X110395295Y-65573808D02*
X110300057Y-65526189D01*
X110300057Y-65526189D02*
X110252438Y-65478570D01*
X110252438Y-65478570D02*
X110204819Y-65383332D01*
X110204819Y-65383332D02*
X110204819Y-65192856D01*
X110204819Y-65192856D02*
X110252438Y-65097618D01*
X110252438Y-65097618D02*
X110300057Y-65049999D01*
X110300057Y-65049999D02*
X110395295Y-65002380D01*
X110395295Y-65002380D02*
X110442914Y-65002380D01*
X110442914Y-65002380D02*
X110538152Y-65049999D01*
X110538152Y-65049999D02*
X110585771Y-65097618D01*
X110585771Y-65097618D02*
X110633390Y-65192856D01*
X110633390Y-65192856D02*
X110633390Y-65383332D01*
X110633390Y-65383332D02*
X110681009Y-65478570D01*
X110681009Y-65478570D02*
X110728628Y-65526189D01*
X110728628Y-65526189D02*
X110823866Y-65573808D01*
X110823866Y-65573808D02*
X111014342Y-65573808D01*
X111014342Y-65573808D02*
X111109580Y-65526189D01*
X111109580Y-65526189D02*
X111157200Y-65478570D01*
X111157200Y-65478570D02*
X111204819Y-65383332D01*
X111204819Y-65383332D02*
X111204819Y-65192856D01*
X111204819Y-65192856D02*
X111157200Y-65097618D01*
X111157200Y-65097618D02*
X111109580Y-65049999D01*
X111109580Y-65049999D02*
X111014342Y-65002380D01*
X111014342Y-65002380D02*
X110823866Y-65002380D01*
X110823866Y-65002380D02*
X110728628Y-65049999D01*
X110728628Y-65049999D02*
X110681009Y-65097618D01*
X110681009Y-65097618D02*
X110633390Y-65192856D01*
X111109580Y-64573808D02*
X111157200Y-64526189D01*
X111157200Y-64526189D02*
X111204819Y-64573808D01*
X111204819Y-64573808D02*
X111157200Y-64621427D01*
X111157200Y-64621427D02*
X111109580Y-64573808D01*
X111109580Y-64573808D02*
X111204819Y-64573808D01*
X111204819Y-63573809D02*
X111204819Y-64145237D01*
X111204819Y-63859523D02*
X110204819Y-63859523D01*
X110204819Y-63859523D02*
X110347676Y-63954761D01*
X110347676Y-63954761D02*
X110442914Y-64049999D01*
X110442914Y-64049999D02*
X110490533Y-64145237D01*
D10*
X111900000Y-31000000D02*
X111900000Y-31000000D01*
X112486420Y-99100000D02*
X49600000Y-99100000D01*
X111900000Y-31000000D02*
X111900000Y-99100000D01*
X111900000Y-31000000D02*
X112486421Y-32126504D01*
X111900000Y-31000000D02*
X111313579Y-32126504D01*
X111900000Y-99100000D02*
X111313579Y-97973496D01*
X111900000Y-99100000D02*
X112486421Y-97973496D01*
M02*
