M48
; DRILL file {KiCad 9.0.3} date 2025-07-10T08:35:30-0700
; FORMAT={-:-/ absolute / metric / decimal}
; #@! TF.CreationDate,2025-07-10T08:35:30-07:00
; #@! TF.GenerationSoftware,Kicad,Pcbnew,9.0.3
; #@! TF.FileFunction,Plated,1,2,PTH
FMAT,2
METRIC
; #@! TA.AperFunction,Plated,PTH,ComponentDrill
T1C0.889
; #@! TA.AperFunction,Plated,PTH,ComponentDrill
T2C1.500
%
G90
G05
T1
X64.68Y-33.904
X64.68Y-36.444
X64.68Y-38.983
X64.68Y-41.523
X64.68Y-44.063
X64.68Y-46.603
X64.68Y-49.143
X79.92Y-33.904
X79.92Y-36.444
X79.92Y-38.983
X79.92Y-41.523
X79.92Y-44.063
X79.92Y-46.603
X79.92Y-49.143
T2
X58.965Y-60.415
X58.965Y-79.465
X65.315Y-57.875
X65.315Y-76.925
X78.015Y-60.415
X78.015Y-79.465
X84.365Y-57.875
X84.365Y-76.925
X97.19Y-60.36
X97.29Y-79.56
X103.54Y-57.82
X103.64Y-77.02
M30
