%TF.GenerationSoftware,KiCad,Pcbnew,9.0.3*%
%TF.CreationDate,2025-07-10T08:35:26-07:00*%
%TF.ProjectId,Hackpad,4861636b-7061-4642-9e6b-696361645f70,rev?*%
%TF.SameCoordinates,Original*%
%TF.FileFunction,Copper,L1,Top*%
%TF.FilePolarity,Positive*%
%FSLAX46Y46*%
G04 Gerber Fmt 4.6, Leading zero omitted, Abs format (unit mm)*
G04 Created by KiCad (PCBNEW 9.0.3) date 2025-07-10 08:35:26*
%MOMM*%
%LPD*%
G01*
G04 APERTURE LIST*
G04 Aperture macros list*
%AMRoundRect*
0 Rectangle with rounded corners*
0 $1 Rounding radius*
0 $2 $3 $4 $5 $6 $7 $8 $9 X,Y pos of 4 corners*
0 Add a 4 corners polygon primitive as box body*
4,1,4,$2,$3,$4,$5,$6,$7,$8,$9,$2,$3,0*
0 Add four circle primitives for the rounded corners*
1,1,$1+$1,$2,$3*
1,1,$1+$1,$4,$5*
1,1,$1+$1,$6,$7*
1,1,$1+$1,$8,$9*
0 Add four rect primitives between the rounded corners*
20,1,$1+$1,$2,$3,$4,$5,0*
20,1,$1+$1,$4,$5,$6,$7,0*
20,1,$1+$1,$6,$7,$8,$9,0*
20,1,$1+$1,$8,$9,$2,$3,0*%
G04 Aperture macros list end*
%ADD10C,0.300000*%
%TA.AperFunction,NonConductor*%
%ADD11C,0.300000*%
%TD*%
%ADD12C,0.250000*%
%TA.AperFunction,NonConductor*%
%ADD13C,0.250000*%
%TD*%
%TA.AperFunction,ComponentPad*%
%ADD14C,2.200000*%
%TD*%
%TA.AperFunction,SMDPad,CuDef*%
%ADD15R,1.600000X0.850000*%
%TD*%
%TA.AperFunction,SMDPad,CuDef*%
%ADD16RoundRect,0.152400X1.063600X0.609600X-1.063600X0.609600X-1.063600X-0.609600X1.063600X-0.609600X0*%
%TD*%
%TA.AperFunction,ComponentPad*%
%ADD17C,1.524000*%
%TD*%
%TA.AperFunction,SMDPad,CuDef*%
%ADD18RoundRect,0.152400X-1.063600X-0.609600X1.063600X-0.609600X1.063600X0.609600X-1.063600X0.609600X0*%
%TD*%
%TA.AperFunction,Conductor*%
%ADD19C,0.200000*%
%TD*%
G04 APERTURE END LIST*
D10*
D11*
X77402975Y-94593078D02*
X78260118Y-94593078D01*
X77831546Y-96093078D02*
X77831546Y-94593078D01*
X78760117Y-96093078D02*
X78760117Y-94593078D01*
X79402975Y-96093078D02*
X79402975Y-95307364D01*
X79402975Y-95307364D02*
X79331546Y-95164507D01*
X79331546Y-95164507D02*
X79188689Y-95093078D01*
X79188689Y-95093078D02*
X78974403Y-95093078D01*
X78974403Y-95093078D02*
X78831546Y-95164507D01*
X78831546Y-95164507D02*
X78760117Y-95235935D01*
X80688689Y-96021650D02*
X80545832Y-96093078D01*
X80545832Y-96093078D02*
X80260118Y-96093078D01*
X80260118Y-96093078D02*
X80117260Y-96021650D01*
X80117260Y-96021650D02*
X80045832Y-95878792D01*
X80045832Y-95878792D02*
X80045832Y-95307364D01*
X80045832Y-95307364D02*
X80117260Y-95164507D01*
X80117260Y-95164507D02*
X80260118Y-95093078D01*
X80260118Y-95093078D02*
X80545832Y-95093078D01*
X80545832Y-95093078D02*
X80688689Y-95164507D01*
X80688689Y-95164507D02*
X80760118Y-95307364D01*
X80760118Y-95307364D02*
X80760118Y-95450221D01*
X80760118Y-95450221D02*
X80045832Y-95593078D01*
X82545831Y-96093078D02*
X82545831Y-94593078D01*
X82545831Y-94593078D02*
X82902974Y-94593078D01*
X82902974Y-94593078D02*
X83117260Y-94664507D01*
X83117260Y-94664507D02*
X83260117Y-94807364D01*
X83260117Y-94807364D02*
X83331546Y-94950221D01*
X83331546Y-94950221D02*
X83402974Y-95235935D01*
X83402974Y-95235935D02*
X83402974Y-95450221D01*
X83402974Y-95450221D02*
X83331546Y-95735935D01*
X83331546Y-95735935D02*
X83260117Y-95878792D01*
X83260117Y-95878792D02*
X83117260Y-96021650D01*
X83117260Y-96021650D02*
X82902974Y-96093078D01*
X82902974Y-96093078D02*
X82545831Y-96093078D01*
X84045831Y-96093078D02*
X84045831Y-95093078D01*
X84045831Y-95378792D02*
X84117260Y-95235935D01*
X84117260Y-95235935D02*
X84188689Y-95164507D01*
X84188689Y-95164507D02*
X84331546Y-95093078D01*
X84331546Y-95093078D02*
X84474403Y-95093078D01*
X85617260Y-96093078D02*
X85617260Y-95307364D01*
X85617260Y-95307364D02*
X85545831Y-95164507D01*
X85545831Y-95164507D02*
X85402974Y-95093078D01*
X85402974Y-95093078D02*
X85117260Y-95093078D01*
X85117260Y-95093078D02*
X84974402Y-95164507D01*
X85617260Y-96021650D02*
X85474402Y-96093078D01*
X85474402Y-96093078D02*
X85117260Y-96093078D01*
X85117260Y-96093078D02*
X84974402Y-96021650D01*
X84974402Y-96021650D02*
X84902974Y-95878792D01*
X84902974Y-95878792D02*
X84902974Y-95735935D01*
X84902974Y-95735935D02*
X84974402Y-95593078D01*
X84974402Y-95593078D02*
X85117260Y-95521650D01*
X85117260Y-95521650D02*
X85474402Y-95521650D01*
X85474402Y-95521650D02*
X85617260Y-95450221D01*
X86974403Y-95093078D02*
X86974403Y-96307364D01*
X86974403Y-96307364D02*
X86902974Y-96450221D01*
X86902974Y-96450221D02*
X86831545Y-96521650D01*
X86831545Y-96521650D02*
X86688688Y-96593078D01*
X86688688Y-96593078D02*
X86474403Y-96593078D01*
X86474403Y-96593078D02*
X86331545Y-96521650D01*
X86974403Y-96021650D02*
X86831545Y-96093078D01*
X86831545Y-96093078D02*
X86545831Y-96093078D01*
X86545831Y-96093078D02*
X86402974Y-96021650D01*
X86402974Y-96021650D02*
X86331545Y-95950221D01*
X86331545Y-95950221D02*
X86260117Y-95807364D01*
X86260117Y-95807364D02*
X86260117Y-95378792D01*
X86260117Y-95378792D02*
X86331545Y-95235935D01*
X86331545Y-95235935D02*
X86402974Y-95164507D01*
X86402974Y-95164507D02*
X86545831Y-95093078D01*
X86545831Y-95093078D02*
X86831545Y-95093078D01*
X86831545Y-95093078D02*
X86974403Y-95164507D01*
X88331546Y-96093078D02*
X88331546Y-95307364D01*
X88331546Y-95307364D02*
X88260117Y-95164507D01*
X88260117Y-95164507D02*
X88117260Y-95093078D01*
X88117260Y-95093078D02*
X87831546Y-95093078D01*
X87831546Y-95093078D02*
X87688688Y-95164507D01*
X88331546Y-96021650D02*
X88188688Y-96093078D01*
X88188688Y-96093078D02*
X87831546Y-96093078D01*
X87831546Y-96093078D02*
X87688688Y-96021650D01*
X87688688Y-96021650D02*
X87617260Y-95878792D01*
X87617260Y-95878792D02*
X87617260Y-95735935D01*
X87617260Y-95735935D02*
X87688688Y-95593078D01*
X87688688Y-95593078D02*
X87831546Y-95521650D01*
X87831546Y-95521650D02*
X88188688Y-95521650D01*
X88188688Y-95521650D02*
X88331546Y-95450221D01*
X89045831Y-96093078D02*
X89045831Y-94593078D01*
X89045831Y-94593078D02*
X89617260Y-94593078D01*
X89617260Y-94593078D02*
X89760117Y-94664507D01*
X89760117Y-94664507D02*
X89831546Y-94735935D01*
X89831546Y-94735935D02*
X89902974Y-94878792D01*
X89902974Y-94878792D02*
X89902974Y-95093078D01*
X89902974Y-95093078D02*
X89831546Y-95235935D01*
X89831546Y-95235935D02*
X89760117Y-95307364D01*
X89760117Y-95307364D02*
X89617260Y-95378792D01*
X89617260Y-95378792D02*
X89045831Y-95378792D01*
X91188689Y-96093078D02*
X91188689Y-95307364D01*
X91188689Y-95307364D02*
X91117260Y-95164507D01*
X91117260Y-95164507D02*
X90974403Y-95093078D01*
X90974403Y-95093078D02*
X90688689Y-95093078D01*
X90688689Y-95093078D02*
X90545831Y-95164507D01*
X91188689Y-96021650D02*
X91045831Y-96093078D01*
X91045831Y-96093078D02*
X90688689Y-96093078D01*
X90688689Y-96093078D02*
X90545831Y-96021650D01*
X90545831Y-96021650D02*
X90474403Y-95878792D01*
X90474403Y-95878792D02*
X90474403Y-95735935D01*
X90474403Y-95735935D02*
X90545831Y-95593078D01*
X90545831Y-95593078D02*
X90688689Y-95521650D01*
X90688689Y-95521650D02*
X91045831Y-95521650D01*
X91045831Y-95521650D02*
X91188689Y-95450221D01*
X92545832Y-96093078D02*
X92545832Y-94593078D01*
X92545832Y-96021650D02*
X92402974Y-96093078D01*
X92402974Y-96093078D02*
X92117260Y-96093078D01*
X92117260Y-96093078D02*
X91974403Y-96021650D01*
X91974403Y-96021650D02*
X91902974Y-95950221D01*
X91902974Y-95950221D02*
X91831546Y-95807364D01*
X91831546Y-95807364D02*
X91831546Y-95378792D01*
X91831546Y-95378792D02*
X91902974Y-95235935D01*
X91902974Y-95235935D02*
X91974403Y-95164507D01*
X91974403Y-95164507D02*
X92117260Y-95093078D01*
X92117260Y-95093078D02*
X92402974Y-95093078D01*
X92402974Y-95093078D02*
X92545832Y-95164507D01*
D12*
D13*
X66982330Y-34022178D02*
X67648996Y-35522178D01*
X67648996Y-34022178D02*
X66982330Y-35522178D01*
X68029949Y-35522178D02*
X68029949Y-34022178D01*
X68458520Y-35093607D02*
X68934710Y-35093607D01*
X68363282Y-35522178D02*
X68696615Y-34022178D01*
X68696615Y-34022178D02*
X69029948Y-35522178D01*
X69553758Y-34022178D02*
X69744234Y-34022178D01*
X69744234Y-34022178D02*
X69839472Y-34093607D01*
X69839472Y-34093607D02*
X69934710Y-34236464D01*
X69934710Y-34236464D02*
X69982329Y-34522178D01*
X69982329Y-34522178D02*
X69982329Y-35022178D01*
X69982329Y-35022178D02*
X69934710Y-35307892D01*
X69934710Y-35307892D02*
X69839472Y-35450750D01*
X69839472Y-35450750D02*
X69744234Y-35522178D01*
X69744234Y-35522178D02*
X69553758Y-35522178D01*
X69553758Y-35522178D02*
X69458520Y-35450750D01*
X69458520Y-35450750D02*
X69363282Y-35307892D01*
X69363282Y-35307892D02*
X69315663Y-35022178D01*
X69315663Y-35022178D02*
X69315663Y-34522178D01*
X69315663Y-34522178D02*
X69363282Y-34236464D01*
X69363282Y-34236464D02*
X69458520Y-34093607D01*
X69458520Y-34093607D02*
X69553758Y-34022178D01*
X71172806Y-35522178D02*
X71172806Y-34022178D01*
X71172806Y-34736464D02*
X71744234Y-34736464D01*
X71744234Y-35522178D02*
X71744234Y-34022178D01*
X72220425Y-34736464D02*
X72553758Y-34736464D01*
X72696615Y-35522178D02*
X72220425Y-35522178D01*
X72220425Y-35522178D02*
X72220425Y-34022178D01*
X72220425Y-34022178D02*
X72696615Y-34022178D01*
X73696615Y-35522178D02*
X73363282Y-34807892D01*
X73125187Y-35522178D02*
X73125187Y-34022178D01*
X73125187Y-34022178D02*
X73506139Y-34022178D01*
X73506139Y-34022178D02*
X73601377Y-34093607D01*
X73601377Y-34093607D02*
X73648996Y-34165035D01*
X73648996Y-34165035D02*
X73696615Y-34307892D01*
X73696615Y-34307892D02*
X73696615Y-34522178D01*
X73696615Y-34522178D02*
X73648996Y-34665035D01*
X73648996Y-34665035D02*
X73601377Y-34736464D01*
X73601377Y-34736464D02*
X73506139Y-34807892D01*
X73506139Y-34807892D02*
X73125187Y-34807892D01*
X74125187Y-34736464D02*
X74458520Y-34736464D01*
X74601377Y-35522178D02*
X74125187Y-35522178D01*
X74125187Y-35522178D02*
X74125187Y-34022178D01*
X74125187Y-34022178D02*
X74601377Y-34022178D01*
D14*
%TO.P,SW3,1,1*%
%TO.N,GND*%
X65315250Y-76924750D03*
%TO.P,SW3,2,2*%
%TO.N,Net-(U1-GPIO3{slash}MOSI)*%
X58965250Y-79464750D03*
%TD*%
D15*
%TO.P,D1,1,DOUT*%
%TO.N,Net-(D1-DOUT)*%
X56262750Y-38267250D03*
%TO.P,D1,2,VSS*%
%TO.N,GND*%
X56262750Y-40017250D03*
%TO.P,D1,3,DIN*%
%TO.N,Net-(D1-DIN)*%
X59762750Y-40017250D03*
%TO.P,D1,4,VDD*%
%TO.N,+5V*%
X59762750Y-38267250D03*
%TD*%
D14*
%TO.P,SW2,1,1*%
%TO.N,GND*%
X84365250Y-57874750D03*
%TO.P,SW2,2,2*%
%TO.N,Net-(U1-GPIO4{slash}MISO)*%
X78015250Y-60414750D03*
%TD*%
%TO.P,SW6,1,1*%
%TO.N,GND*%
X103640000Y-77020000D03*
%TO.P,SW6,2,2*%
%TO.N,Net-(U1-GPIO7{slash}SCL)*%
X97290000Y-79560000D03*
%TD*%
%TO.P,SW5,1,1*%
%TO.N,GND*%
X103540000Y-57820000D03*
%TO.P,SW5,2,2*%
%TO.N,Net-(U1-GPIO0{slash}TX)*%
X97190000Y-60360000D03*
%TD*%
D16*
%TO.P,U1,1,GPIO26/ADC0/A0*%
%TO.N,unconnected-(U1-GPIO26{slash}ADC0{slash}A0-Pad1)*%
X63845250Y-33903500D03*
D17*
X64680250Y-33903500D03*
D16*
%TO.P,U1,2,GPIO27/ADC1/A1*%
%TO.N,unconnected-(U1-GPIO27{slash}ADC1{slash}A1-Pad2)*%
X63845250Y-36443500D03*
D17*
X64680250Y-36443500D03*
D16*
%TO.P,U1,3,GPIO28/ADC2/A2*%
%TO.N,unconnected-(U1-GPIO28{slash}ADC2{slash}A2-Pad3)*%
X63845250Y-38983500D03*
D17*
X64680250Y-38983500D03*
D16*
%TO.P,U1,4,GPIO29/ADC3/A3*%
%TO.N,unconnected-(U1-GPIO29{slash}ADC3{slash}A3-Pad4)*%
X63845250Y-41523500D03*
D17*
X64680250Y-41523500D03*
D16*
%TO.P,U1,5,GPIO6/SDA*%
%TO.N,Net-(D1-DIN)*%
X63845250Y-44063500D03*
D17*
X64680250Y-44063500D03*
D16*
%TO.P,U1,6,GPIO7/SCL*%
%TO.N,Net-(U1-GPIO7{slash}SCL)*%
X63845250Y-46603500D03*
D17*
X64680250Y-46603500D03*
D16*
%TO.P,U1,7,GPIO0/TX*%
%TO.N,Net-(U1-GPIO0{slash}TX)*%
X63845250Y-49143500D03*
D17*
X64680250Y-49143500D03*
%TO.P,U1,8,GPIO1/RX*%
%TO.N,Net-(U1-GPIO1{slash}RX)*%
X79920250Y-49143500D03*
D18*
X80755250Y-49143500D03*
D17*
%TO.P,U1,9,GPIO2/SCK*%
%TO.N,Net-(U1-GPIO2{slash}SCK)*%
X79920250Y-46603500D03*
D18*
X80755250Y-46603500D03*
D17*
%TO.P,U1,10,GPIO4/MISO*%
%TO.N,Net-(U1-GPIO4{slash}MISO)*%
X79920250Y-44063500D03*
D18*
X80755250Y-44063500D03*
D17*
%TO.P,U1,11,GPIO3/MOSI*%
%TO.N,Net-(U1-GPIO3{slash}MOSI)*%
X79920250Y-41523500D03*
D18*
X80755250Y-41523500D03*
D17*
%TO.P,U1,12,3V3*%
%TO.N,unconnected-(U1-3V3-Pad12)*%
X79920250Y-38983500D03*
D18*
X80755250Y-38983500D03*
D17*
%TO.P,U1,13,GND*%
%TO.N,GND*%
X79920250Y-36443500D03*
D18*
X80755250Y-36443500D03*
D17*
%TO.P,U1,14,VBUS*%
%TO.N,+5V*%
X79920250Y-33903500D03*
D18*
X80755250Y-33903500D03*
%TD*%
D15*
%TO.P,D2,1,DOUT*%
%TO.N,unconnected-(D2-DOUT-Pad1)*%
X88969000Y-39142250D03*
%TO.P,D2,2,VSS*%
%TO.N,GND*%
X88969000Y-40892250D03*
%TO.P,D2,3,DIN*%
%TO.N,Net-(D1-DOUT)*%
X92469000Y-40892250D03*
%TO.P,D2,4,VDD*%
%TO.N,+5V*%
X92469000Y-39142250D03*
%TD*%
D14*
%TO.P,SW4,1,1*%
%TO.N,GND*%
X84365250Y-76924750D03*
%TO.P,SW4,2,2*%
%TO.N,Net-(U1-GPIO2{slash}SCK)*%
X78015250Y-79464750D03*
%TD*%
%TO.P,SW1,1,1*%
%TO.N,GND*%
X65315250Y-57874750D03*
%TO.P,SW1,2,2*%
%TO.N,Net-(U1-GPIO1{slash}RX)*%
X58965250Y-60414750D03*
%TD*%
D19*
%TO.N,+5V*%
X104374000Y-38100000D02*
X104374000Y-33503600D01*
X61542000Y-40046500D02*
X59762750Y-38267250D01*
X103331750Y-39142250D02*
X104374000Y-38100000D01*
X73777250Y-40046500D02*
X61542000Y-40046500D01*
X104374000Y-33503600D02*
X103974100Y-33903500D01*
X79920250Y-33903500D02*
X73777250Y-40046500D01*
X103974100Y-33903500D02*
X79920250Y-33903500D01*
X92469000Y-39142250D02*
X103331750Y-39142250D01*
%TO.N,GND*%
X88969000Y-40892250D02*
X88969000Y-53271000D01*
X82536564Y-76924750D02*
X84365250Y-76924750D01*
X56262750Y-48822250D02*
X65315250Y-57874750D01*
X73493936Y-76924750D02*
X77434936Y-80865750D01*
X103540000Y-57820000D02*
X98991000Y-53271000D01*
X65315250Y-57874750D02*
X65315250Y-51048500D01*
X103540000Y-57820000D02*
X103540000Y-58240000D01*
X88969000Y-40892250D02*
X85204000Y-40892250D01*
X65315250Y-76924750D02*
X73493936Y-76924750D01*
X65315250Y-51048500D02*
X79920250Y-36443500D01*
X56262750Y-40017250D02*
X56262750Y-48822250D01*
X85204000Y-40892250D02*
X80755250Y-36443500D01*
X103540000Y-58240000D02*
X103640000Y-58340000D01*
X103640000Y-58340000D02*
X103640000Y-77020000D01*
X98991000Y-53271000D02*
X88969000Y-53271000D01*
X88969000Y-53271000D02*
X84365250Y-57874750D01*
X63486564Y-76924750D02*
X65315250Y-76924750D01*
X84365250Y-76924750D02*
X84365250Y-57874750D01*
X78595564Y-80865750D02*
X82536564Y-76924750D01*
X77434936Y-80865750D02*
X78595564Y-80865750D01*
%TO.N,Net-(D1-DIN)*%
X59762750Y-39981000D02*
X63845250Y-44063500D01*
%TO.N,Net-(D1-DOUT)*%
X56262750Y-38267250D02*
X56262750Y-34224750D01*
X104278000Y-32840500D02*
X104775000Y-33337500D01*
X104775000Y-40481250D02*
X102393750Y-40481250D01*
X101982750Y-40892250D02*
X92469000Y-40892250D01*
X57647000Y-32840500D02*
X104278000Y-32840500D01*
X102393750Y-40481250D02*
X101982750Y-40892250D01*
X104775000Y-33337500D02*
X104775000Y-40481250D01*
X56262750Y-34224750D02*
X57647000Y-32840500D01*
%TO.N,Net-(U1-GPIO1{slash}RX)*%
X68649000Y-60414750D02*
X58965250Y-60414750D01*
X79920250Y-49143500D02*
X68649000Y-60414750D01*
%TO.N,Net-(U1-GPIO4{slash}MISO)*%
X82010876Y-40046500D02*
X82964250Y-40999874D01*
X82964250Y-40999874D02*
X82964250Y-55465750D01*
X79479940Y-40046500D02*
X82010876Y-40046500D01*
X78857250Y-43000500D02*
X78857250Y-40669190D01*
X79920250Y-44063500D02*
X78857250Y-43000500D01*
X82964250Y-55465750D02*
X78015250Y-60414750D01*
X78857250Y-40669190D02*
X79479940Y-40046500D01*
%TO.N,Net-(U1-GPIO3{slash}MOSI)*%
X79920250Y-41523500D02*
X80997880Y-41523500D01*
X82272250Y-42797870D02*
X82272250Y-54176436D01*
X82272250Y-54176436D02*
X58965250Y-77483436D01*
X80997880Y-41523500D02*
X82272250Y-42797870D01*
X58965250Y-77483436D02*
X58965250Y-79464750D01*
%TO.N,Net-(U1-GPIO2{slash}SCK)*%
X64320464Y-75523750D02*
X74074250Y-75523750D01*
X58384936Y-80865750D02*
X59545564Y-80865750D01*
X59545564Y-80865750D02*
X63085564Y-77325750D01*
X74074250Y-75523750D02*
X78015250Y-79464750D01*
X60366250Y-59834436D02*
X59545564Y-59013750D01*
X57564250Y-80045064D02*
X58384936Y-80865750D01*
X63085564Y-77325750D02*
X63085564Y-76758650D01*
X60424250Y-63855064D02*
X57564250Y-66715064D01*
X57564250Y-66715064D02*
X57564250Y-80045064D01*
X57564250Y-60995064D02*
X60424250Y-63855064D01*
X66689314Y-59834436D02*
X60366250Y-59834436D01*
X79920250Y-46603500D02*
X81100976Y-46603500D01*
X57564250Y-59834436D02*
X57564250Y-60995064D01*
X58384936Y-59013750D02*
X57564250Y-59834436D01*
X59545564Y-59013750D02*
X58384936Y-59013750D01*
X63085564Y-76758650D02*
X64320464Y-75523750D01*
X79920250Y-46603500D02*
X66689314Y-59834436D01*
%TO.N,Net-(U1-GPIO0{slash}TX)*%
X82122720Y-78325750D02*
X77242720Y-83205750D01*
X58192720Y-83205750D02*
X57197780Y-83205750D01*
X55161750Y-81169720D02*
X55161750Y-39291250D01*
X76247780Y-83205750D02*
X73845780Y-80803750D01*
X97190000Y-66081314D02*
X84945564Y-78325750D01*
X57363750Y-43063750D02*
X63443500Y-49143500D01*
X55161750Y-39291250D02*
X57363750Y-39291250D01*
X57363750Y-39291250D02*
X57363750Y-43063750D01*
X77242720Y-83205750D02*
X76247780Y-83205750D01*
X63443500Y-49143500D02*
X64680250Y-49143500D01*
X84945564Y-78325750D02*
X82122720Y-78325750D01*
X63486564Y-77911906D02*
X58192720Y-83205750D01*
X57197780Y-83205750D02*
X55161750Y-81169720D01*
X97190000Y-60360000D02*
X97190000Y-66081314D01*
X66378408Y-80803750D02*
X63486564Y-77911906D01*
X73845780Y-80803750D02*
X66378408Y-80803750D01*
%TO.N,Net-(U1-GPIO7{slash}SCL)*%
X103081314Y-79560000D02*
X105041000Y-77600314D01*
X105041000Y-77600314D02*
X105041000Y-76439686D01*
X104120314Y-59221000D02*
X104941000Y-58400314D01*
X104941000Y-55037250D02*
X90070000Y-40166250D01*
X97290000Y-79560000D02*
X103081314Y-79560000D01*
X82010876Y-35380500D02*
X79179440Y-35380500D01*
X79179440Y-35380500D02*
X67956440Y-46603500D01*
X104120314Y-75519000D02*
X104120314Y-59221000D01*
X67956440Y-46603500D02*
X64680250Y-46603500D01*
X104941000Y-58400314D02*
X104941000Y-55037250D01*
X86796626Y-40166250D02*
X82010876Y-35380500D01*
X90070000Y-40166250D02*
X86796626Y-40166250D01*
X105041000Y-76439686D02*
X104120314Y-75519000D01*
%TD*%
M02*
