%TF.GenerationSoftware,KiCad,Pcbnew,9.0.3*%
%TF.CreationDate,2025-07-10T08:35:26-07:00*%
%TF.ProjectId,Hackpad,4861636b-7061-4642-9e6b-696361645f70,rev?*%
%TF.SameCoordinates,Original*%
%TF.FileFunction,Legend,Top*%
%TF.FilePolarity,Positive*%
%FSLAX46Y46*%
G04 Gerber Fmt 4.6, Leading zero omitted, Abs format (unit mm)*
G04 Created by KiCad (PCBNEW 9.0.3) date 2025-07-10 08:35:26*
%MOMM*%
%LPD*%
G01*
G04 APERTURE LIST*
%ADD10C,0.150000*%
%ADD11C,0.101600*%
%ADD12C,0.120000*%
%ADD13C,0.127000*%
%ADD14C,0.100000*%
%ADD15C,0.504000*%
G04 APERTURE END LIST*
D10*
X61441917Y-74537950D02*
X61584774Y-74585569D01*
X61584774Y-74585569D02*
X61822869Y-74585569D01*
X61822869Y-74585569D02*
X61918107Y-74537950D01*
X61918107Y-74537950D02*
X61965726Y-74490330D01*
X61965726Y-74490330D02*
X62013345Y-74395092D01*
X62013345Y-74395092D02*
X62013345Y-74299854D01*
X62013345Y-74299854D02*
X61965726Y-74204616D01*
X61965726Y-74204616D02*
X61918107Y-74156997D01*
X61918107Y-74156997D02*
X61822869Y-74109378D01*
X61822869Y-74109378D02*
X61632393Y-74061759D01*
X61632393Y-74061759D02*
X61537155Y-74014140D01*
X61537155Y-74014140D02*
X61489536Y-73966521D01*
X61489536Y-73966521D02*
X61441917Y-73871283D01*
X61441917Y-73871283D02*
X61441917Y-73776045D01*
X61441917Y-73776045D02*
X61489536Y-73680807D01*
X61489536Y-73680807D02*
X61537155Y-73633188D01*
X61537155Y-73633188D02*
X61632393Y-73585569D01*
X61632393Y-73585569D02*
X61870488Y-73585569D01*
X61870488Y-73585569D02*
X62013345Y-73633188D01*
X62346679Y-73585569D02*
X62584774Y-74585569D01*
X62584774Y-74585569D02*
X62775250Y-73871283D01*
X62775250Y-73871283D02*
X62965726Y-74585569D01*
X62965726Y-74585569D02*
X63203822Y-73585569D01*
X63489536Y-73585569D02*
X64108583Y-73585569D01*
X64108583Y-73585569D02*
X63775250Y-73966521D01*
X63775250Y-73966521D02*
X63918107Y-73966521D01*
X63918107Y-73966521D02*
X64013345Y-74014140D01*
X64013345Y-74014140D02*
X64060964Y-74061759D01*
X64060964Y-74061759D02*
X64108583Y-74156997D01*
X64108583Y-74156997D02*
X64108583Y-74395092D01*
X64108583Y-74395092D02*
X64060964Y-74490330D01*
X64060964Y-74490330D02*
X64013345Y-74537950D01*
X64013345Y-74537950D02*
X63918107Y-74585569D01*
X63918107Y-74585569D02*
X63632393Y-74585569D01*
X63632393Y-74585569D02*
X63537155Y-74537950D01*
X63537155Y-74537950D02*
X63489536Y-74490330D01*
X57274655Y-36847069D02*
X57274655Y-35847069D01*
X57274655Y-35847069D02*
X57512750Y-35847069D01*
X57512750Y-35847069D02*
X57655607Y-35894688D01*
X57655607Y-35894688D02*
X57750845Y-35989926D01*
X57750845Y-35989926D02*
X57798464Y-36085164D01*
X57798464Y-36085164D02*
X57846083Y-36275640D01*
X57846083Y-36275640D02*
X57846083Y-36418497D01*
X57846083Y-36418497D02*
X57798464Y-36608973D01*
X57798464Y-36608973D02*
X57750845Y-36704211D01*
X57750845Y-36704211D02*
X57655607Y-36799450D01*
X57655607Y-36799450D02*
X57512750Y-36847069D01*
X57512750Y-36847069D02*
X57274655Y-36847069D01*
X58798464Y-36847069D02*
X58227036Y-36847069D01*
X58512750Y-36847069D02*
X58512750Y-35847069D01*
X58512750Y-35847069D02*
X58417512Y-35989926D01*
X58417512Y-35989926D02*
X58322274Y-36085164D01*
X58322274Y-36085164D02*
X58227036Y-36132783D01*
X55041321Y-38629545D02*
X54584178Y-38629545D01*
X54812750Y-38629545D02*
X54812750Y-37829545D01*
X54812750Y-37829545D02*
X54736559Y-37943830D01*
X54736559Y-37943830D02*
X54660369Y-38020021D01*
X54660369Y-38020021D02*
X54584178Y-38058116D01*
X80491917Y-55487950D02*
X80634774Y-55535569D01*
X80634774Y-55535569D02*
X80872869Y-55535569D01*
X80872869Y-55535569D02*
X80968107Y-55487950D01*
X80968107Y-55487950D02*
X81015726Y-55440330D01*
X81015726Y-55440330D02*
X81063345Y-55345092D01*
X81063345Y-55345092D02*
X81063345Y-55249854D01*
X81063345Y-55249854D02*
X81015726Y-55154616D01*
X81015726Y-55154616D02*
X80968107Y-55106997D01*
X80968107Y-55106997D02*
X80872869Y-55059378D01*
X80872869Y-55059378D02*
X80682393Y-55011759D01*
X80682393Y-55011759D02*
X80587155Y-54964140D01*
X80587155Y-54964140D02*
X80539536Y-54916521D01*
X80539536Y-54916521D02*
X80491917Y-54821283D01*
X80491917Y-54821283D02*
X80491917Y-54726045D01*
X80491917Y-54726045D02*
X80539536Y-54630807D01*
X80539536Y-54630807D02*
X80587155Y-54583188D01*
X80587155Y-54583188D02*
X80682393Y-54535569D01*
X80682393Y-54535569D02*
X80920488Y-54535569D01*
X80920488Y-54535569D02*
X81063345Y-54583188D01*
X81396679Y-54535569D02*
X81634774Y-55535569D01*
X81634774Y-55535569D02*
X81825250Y-54821283D01*
X81825250Y-54821283D02*
X82015726Y-55535569D01*
X82015726Y-55535569D02*
X82253822Y-54535569D01*
X82587155Y-54630807D02*
X82634774Y-54583188D01*
X82634774Y-54583188D02*
X82730012Y-54535569D01*
X82730012Y-54535569D02*
X82968107Y-54535569D01*
X82968107Y-54535569D02*
X83063345Y-54583188D01*
X83063345Y-54583188D02*
X83110964Y-54630807D01*
X83110964Y-54630807D02*
X83158583Y-54726045D01*
X83158583Y-54726045D02*
X83158583Y-54821283D01*
X83158583Y-54821283D02*
X83110964Y-54964140D01*
X83110964Y-54964140D02*
X82539536Y-55535569D01*
X82539536Y-55535569D02*
X83158583Y-55535569D01*
X99766667Y-74633200D02*
X99909524Y-74680819D01*
X99909524Y-74680819D02*
X100147619Y-74680819D01*
X100147619Y-74680819D02*
X100242857Y-74633200D01*
X100242857Y-74633200D02*
X100290476Y-74585580D01*
X100290476Y-74585580D02*
X100338095Y-74490342D01*
X100338095Y-74490342D02*
X100338095Y-74395104D01*
X100338095Y-74395104D02*
X100290476Y-74299866D01*
X100290476Y-74299866D02*
X100242857Y-74252247D01*
X100242857Y-74252247D02*
X100147619Y-74204628D01*
X100147619Y-74204628D02*
X99957143Y-74157009D01*
X99957143Y-74157009D02*
X99861905Y-74109390D01*
X99861905Y-74109390D02*
X99814286Y-74061771D01*
X99814286Y-74061771D02*
X99766667Y-73966533D01*
X99766667Y-73966533D02*
X99766667Y-73871295D01*
X99766667Y-73871295D02*
X99814286Y-73776057D01*
X99814286Y-73776057D02*
X99861905Y-73728438D01*
X99861905Y-73728438D02*
X99957143Y-73680819D01*
X99957143Y-73680819D02*
X100195238Y-73680819D01*
X100195238Y-73680819D02*
X100338095Y-73728438D01*
X100671429Y-73680819D02*
X100909524Y-74680819D01*
X100909524Y-74680819D02*
X101100000Y-73966533D01*
X101100000Y-73966533D02*
X101290476Y-74680819D01*
X101290476Y-74680819D02*
X101528572Y-73680819D01*
X102338095Y-73680819D02*
X102147619Y-73680819D01*
X102147619Y-73680819D02*
X102052381Y-73728438D01*
X102052381Y-73728438D02*
X102004762Y-73776057D01*
X102004762Y-73776057D02*
X101909524Y-73918914D01*
X101909524Y-73918914D02*
X101861905Y-74109390D01*
X101861905Y-74109390D02*
X101861905Y-74490342D01*
X101861905Y-74490342D02*
X101909524Y-74585580D01*
X101909524Y-74585580D02*
X101957143Y-74633200D01*
X101957143Y-74633200D02*
X102052381Y-74680819D01*
X102052381Y-74680819D02*
X102242857Y-74680819D01*
X102242857Y-74680819D02*
X102338095Y-74633200D01*
X102338095Y-74633200D02*
X102385714Y-74585580D01*
X102385714Y-74585580D02*
X102433333Y-74490342D01*
X102433333Y-74490342D02*
X102433333Y-74252247D01*
X102433333Y-74252247D02*
X102385714Y-74157009D01*
X102385714Y-74157009D02*
X102338095Y-74109390D01*
X102338095Y-74109390D02*
X102242857Y-74061771D01*
X102242857Y-74061771D02*
X102052381Y-74061771D01*
X102052381Y-74061771D02*
X101957143Y-74109390D01*
X101957143Y-74109390D02*
X101909524Y-74157009D01*
X101909524Y-74157009D02*
X101861905Y-74252247D01*
X99666667Y-55433200D02*
X99809524Y-55480819D01*
X99809524Y-55480819D02*
X100047619Y-55480819D01*
X100047619Y-55480819D02*
X100142857Y-55433200D01*
X100142857Y-55433200D02*
X100190476Y-55385580D01*
X100190476Y-55385580D02*
X100238095Y-55290342D01*
X100238095Y-55290342D02*
X100238095Y-55195104D01*
X100238095Y-55195104D02*
X100190476Y-55099866D01*
X100190476Y-55099866D02*
X100142857Y-55052247D01*
X100142857Y-55052247D02*
X100047619Y-55004628D01*
X100047619Y-55004628D02*
X99857143Y-54957009D01*
X99857143Y-54957009D02*
X99761905Y-54909390D01*
X99761905Y-54909390D02*
X99714286Y-54861771D01*
X99714286Y-54861771D02*
X99666667Y-54766533D01*
X99666667Y-54766533D02*
X99666667Y-54671295D01*
X99666667Y-54671295D02*
X99714286Y-54576057D01*
X99714286Y-54576057D02*
X99761905Y-54528438D01*
X99761905Y-54528438D02*
X99857143Y-54480819D01*
X99857143Y-54480819D02*
X100095238Y-54480819D01*
X100095238Y-54480819D02*
X100238095Y-54528438D01*
X100571429Y-54480819D02*
X100809524Y-55480819D01*
X100809524Y-55480819D02*
X101000000Y-54766533D01*
X101000000Y-54766533D02*
X101190476Y-55480819D01*
X101190476Y-55480819D02*
X101428572Y-54480819D01*
X102285714Y-54480819D02*
X101809524Y-54480819D01*
X101809524Y-54480819D02*
X101761905Y-54957009D01*
X101761905Y-54957009D02*
X101809524Y-54909390D01*
X101809524Y-54909390D02*
X101904762Y-54861771D01*
X101904762Y-54861771D02*
X102142857Y-54861771D01*
X102142857Y-54861771D02*
X102238095Y-54909390D01*
X102238095Y-54909390D02*
X102285714Y-54957009D01*
X102285714Y-54957009D02*
X102333333Y-55052247D01*
X102333333Y-55052247D02*
X102333333Y-55290342D01*
X102333333Y-55290342D02*
X102285714Y-55385580D01*
X102285714Y-55385580D02*
X102238095Y-55433200D01*
X102238095Y-55433200D02*
X102142857Y-55480819D01*
X102142857Y-55480819D02*
X101904762Y-55480819D01*
X101904762Y-55480819D02*
X101809524Y-55433200D01*
X101809524Y-55433200D02*
X101761905Y-55385580D01*
D11*
X63316440Y-29176979D02*
X63316440Y-29691026D01*
X63316440Y-29691026D02*
X63346678Y-29751502D01*
X63346678Y-29751502D02*
X63376916Y-29781741D01*
X63376916Y-29781741D02*
X63437392Y-29811979D01*
X63437392Y-29811979D02*
X63558345Y-29811979D01*
X63558345Y-29811979D02*
X63618821Y-29781741D01*
X63618821Y-29781741D02*
X63649059Y-29751502D01*
X63649059Y-29751502D02*
X63679297Y-29691026D01*
X63679297Y-29691026D02*
X63679297Y-29176979D01*
X64314297Y-29811979D02*
X63951440Y-29811979D01*
X64132868Y-29811979D02*
X64132868Y-29176979D01*
X64132868Y-29176979D02*
X64072392Y-29267693D01*
X64072392Y-29267693D02*
X64011916Y-29328169D01*
X64011916Y-29328169D02*
X63951440Y-29358407D01*
D10*
X89980905Y-37722069D02*
X89980905Y-36722069D01*
X89980905Y-36722069D02*
X90219000Y-36722069D01*
X90219000Y-36722069D02*
X90361857Y-36769688D01*
X90361857Y-36769688D02*
X90457095Y-36864926D01*
X90457095Y-36864926D02*
X90504714Y-36960164D01*
X90504714Y-36960164D02*
X90552333Y-37150640D01*
X90552333Y-37150640D02*
X90552333Y-37293497D01*
X90552333Y-37293497D02*
X90504714Y-37483973D01*
X90504714Y-37483973D02*
X90457095Y-37579211D01*
X90457095Y-37579211D02*
X90361857Y-37674450D01*
X90361857Y-37674450D02*
X90219000Y-37722069D01*
X90219000Y-37722069D02*
X89980905Y-37722069D01*
X90933286Y-36817307D02*
X90980905Y-36769688D01*
X90980905Y-36769688D02*
X91076143Y-36722069D01*
X91076143Y-36722069D02*
X91314238Y-36722069D01*
X91314238Y-36722069D02*
X91409476Y-36769688D01*
X91409476Y-36769688D02*
X91457095Y-36817307D01*
X91457095Y-36817307D02*
X91504714Y-36912545D01*
X91504714Y-36912545D02*
X91504714Y-37007783D01*
X91504714Y-37007783D02*
X91457095Y-37150640D01*
X91457095Y-37150640D02*
X90885667Y-37722069D01*
X90885667Y-37722069D02*
X91504714Y-37722069D01*
X87747571Y-39504545D02*
X87290428Y-39504545D01*
X87519000Y-39504545D02*
X87519000Y-38704545D01*
X87519000Y-38704545D02*
X87442809Y-38818830D01*
X87442809Y-38818830D02*
X87366619Y-38895021D01*
X87366619Y-38895021D02*
X87290428Y-38933116D01*
X80491917Y-74537950D02*
X80634774Y-74585569D01*
X80634774Y-74585569D02*
X80872869Y-74585569D01*
X80872869Y-74585569D02*
X80968107Y-74537950D01*
X80968107Y-74537950D02*
X81015726Y-74490330D01*
X81015726Y-74490330D02*
X81063345Y-74395092D01*
X81063345Y-74395092D02*
X81063345Y-74299854D01*
X81063345Y-74299854D02*
X81015726Y-74204616D01*
X81015726Y-74204616D02*
X80968107Y-74156997D01*
X80968107Y-74156997D02*
X80872869Y-74109378D01*
X80872869Y-74109378D02*
X80682393Y-74061759D01*
X80682393Y-74061759D02*
X80587155Y-74014140D01*
X80587155Y-74014140D02*
X80539536Y-73966521D01*
X80539536Y-73966521D02*
X80491917Y-73871283D01*
X80491917Y-73871283D02*
X80491917Y-73776045D01*
X80491917Y-73776045D02*
X80539536Y-73680807D01*
X80539536Y-73680807D02*
X80587155Y-73633188D01*
X80587155Y-73633188D02*
X80682393Y-73585569D01*
X80682393Y-73585569D02*
X80920488Y-73585569D01*
X80920488Y-73585569D02*
X81063345Y-73633188D01*
X81396679Y-73585569D02*
X81634774Y-74585569D01*
X81634774Y-74585569D02*
X81825250Y-73871283D01*
X81825250Y-73871283D02*
X82015726Y-74585569D01*
X82015726Y-74585569D02*
X82253822Y-73585569D01*
X83063345Y-73918902D02*
X83063345Y-74585569D01*
X82825250Y-73537950D02*
X82587155Y-74252235D01*
X82587155Y-74252235D02*
X83206202Y-74252235D01*
X61441917Y-55487950D02*
X61584774Y-55535569D01*
X61584774Y-55535569D02*
X61822869Y-55535569D01*
X61822869Y-55535569D02*
X61918107Y-55487950D01*
X61918107Y-55487950D02*
X61965726Y-55440330D01*
X61965726Y-55440330D02*
X62013345Y-55345092D01*
X62013345Y-55345092D02*
X62013345Y-55249854D01*
X62013345Y-55249854D02*
X61965726Y-55154616D01*
X61965726Y-55154616D02*
X61918107Y-55106997D01*
X61918107Y-55106997D02*
X61822869Y-55059378D01*
X61822869Y-55059378D02*
X61632393Y-55011759D01*
X61632393Y-55011759D02*
X61537155Y-54964140D01*
X61537155Y-54964140D02*
X61489536Y-54916521D01*
X61489536Y-54916521D02*
X61441917Y-54821283D01*
X61441917Y-54821283D02*
X61441917Y-54726045D01*
X61441917Y-54726045D02*
X61489536Y-54630807D01*
X61489536Y-54630807D02*
X61537155Y-54583188D01*
X61537155Y-54583188D02*
X61632393Y-54535569D01*
X61632393Y-54535569D02*
X61870488Y-54535569D01*
X61870488Y-54535569D02*
X62013345Y-54583188D01*
X62346679Y-54535569D02*
X62584774Y-55535569D01*
X62584774Y-55535569D02*
X62775250Y-54821283D01*
X62775250Y-54821283D02*
X62965726Y-55535569D01*
X62965726Y-55535569D02*
X63203822Y-54535569D01*
X64108583Y-55535569D02*
X63537155Y-55535569D01*
X63822869Y-55535569D02*
X63822869Y-54535569D01*
X63822869Y-54535569D02*
X63727631Y-54678426D01*
X63727631Y-54678426D02*
X63632393Y-54773664D01*
X63632393Y-54773664D02*
X63537155Y-54821283D01*
D12*
%TO.C,SW3*%
X55790250Y-75019750D02*
X69760250Y-75019750D01*
X55790250Y-88989750D02*
X55790250Y-75019750D01*
X69760250Y-75019750D02*
X69760250Y-88989750D01*
X69760250Y-88989750D02*
X55790250Y-88989750D01*
%TO.C,D1*%
X55212750Y-37142250D02*
X55212750Y-41142250D01*
X55212750Y-37142250D02*
X60812750Y-37142250D01*
X55212750Y-41142250D02*
X60212750Y-41142250D01*
X60812750Y-40542250D02*
X60212750Y-41142250D01*
X60812750Y-40542250D02*
X60812750Y-37142250D01*
%TO.C,SW2*%
X74840250Y-55969750D02*
X88810250Y-55969750D01*
X74840250Y-69939750D02*
X74840250Y-55969750D01*
X88810250Y-55969750D02*
X88810250Y-69939750D01*
X88810250Y-69939750D02*
X74840250Y-69939750D01*
%TO.C,SW6*%
X94115000Y-75115000D02*
X108085000Y-75115000D01*
X94115000Y-89085000D02*
X94115000Y-75115000D01*
X108085000Y-75115000D02*
X108085000Y-89085000D01*
X108085000Y-89085000D02*
X94115000Y-89085000D01*
%TO.C,SW5*%
X94015000Y-55915000D02*
X107985000Y-55915000D01*
X94015000Y-69885000D02*
X94015000Y-55915000D01*
X107985000Y-55915000D02*
X107985000Y-69885000D01*
X107985000Y-69885000D02*
X94015000Y-69885000D01*
D13*
%TO.C,U1*%
X63410250Y-50032500D02*
X63410250Y-32887500D01*
X65315250Y-51937500D02*
X79285250Y-51937500D01*
X67805250Y-30982500D02*
X67808978Y-30072228D01*
X68308978Y-29572500D02*
X76304250Y-29572500D01*
X76804250Y-30072500D02*
X76804250Y-30982500D01*
D14*
X79285250Y-30982500D02*
X65315250Y-30982500D01*
D13*
X79285250Y-30982500D02*
X65315250Y-30982500D01*
X81190250Y-50032500D02*
X81190250Y-32887500D01*
X63410250Y-32887500D02*
G75*
G02*
X65315250Y-30982500I1905001J-1D01*
G01*
X65315250Y-51937500D02*
G75*
G02*
X63410250Y-50032500I1J1905001D01*
G01*
X67808978Y-30072228D02*
G75*
G02*
X68308978Y-29572501I500018J-291D01*
G01*
X76304250Y-29572500D02*
G75*
G02*
X76804250Y-30072500I0J-500000D01*
G01*
X79285250Y-30982500D02*
G75*
G02*
X81190250Y-32887500I0J-1905000D01*
G01*
X81190250Y-50032500D02*
G75*
G02*
X79285250Y-51937500I-1905000J0D01*
G01*
D15*
X63602250Y-31223500D02*
G75*
G02*
X63098250Y-31223500I-252000J0D01*
G01*
X63098250Y-31223500D02*
G75*
G02*
X63602250Y-31223500I252000J0D01*
G01*
X64745250Y-32103500D02*
G75*
G02*
X64241250Y-32103500I-252000J0D01*
G01*
X64241250Y-32103500D02*
G75*
G02*
X64745250Y-32103500I252000J0D01*
G01*
D12*
%TO.C,D2*%
X87919000Y-38017250D02*
X87919000Y-42017250D01*
X87919000Y-38017250D02*
X93519000Y-38017250D01*
X87919000Y-42017250D02*
X92919000Y-42017250D01*
X93519000Y-41417250D02*
X92919000Y-42017250D01*
X93519000Y-41417250D02*
X93519000Y-38017250D01*
%TO.C,SW4*%
X74840250Y-75019750D02*
X88810250Y-75019750D01*
X74840250Y-88989750D02*
X74840250Y-75019750D01*
X88810250Y-75019750D02*
X88810250Y-88989750D01*
X88810250Y-88989750D02*
X74840250Y-88989750D01*
%TO.C,SW1*%
X55790250Y-55969750D02*
X69760250Y-55969750D01*
X55790250Y-69939750D02*
X55790250Y-55969750D01*
X69760250Y-55969750D02*
X69760250Y-69939750D01*
X69760250Y-69939750D02*
X55790250Y-69939750D01*
%TD*%
M02*
