%TF.GenerationSoftware,KiCad,Pcbnew,9.0.3*%
%TF.CreationDate,2025-07-10T08:35:26-07:00*%
%TF.ProjectId,Hackpad,4861636b-7061-4642-9e6b-696361645f70,rev?*%
%TF.SameCoordinates,Original*%
%TF.FileFunction,Soldermask,Bot*%
%TF.FilePolarity,Negative*%
%FSLAX46Y46*%
G04 Gerber Fmt 4.6, Leading zero omitted, Abs format (unit mm)*
G04 Created by KiCad (PCBNEW 9.0.3) date 2025-07-10 08:35:26*
%MOMM*%
%LPD*%
G01*
G04 APERTURE LIST*
%ADD10C,1.700000*%
%ADD11C,4.000000*%
%ADD12C,2.200000*%
%ADD13C,1.524000*%
G04 APERTURE END LIST*
D10*
%TO.C,SW3*%
X57695250Y-82004750D03*
D11*
X62775250Y-82004750D03*
D10*
X67855250Y-82004750D03*
D12*
X65315250Y-76924750D03*
X58965250Y-79464750D03*
%TD*%
D10*
%TO.C,SW2*%
X76745250Y-62954750D03*
D11*
X81825250Y-62954750D03*
D10*
X86905250Y-62954750D03*
D12*
X84365250Y-57874750D03*
X78015250Y-60414750D03*
%TD*%
D10*
%TO.C,SW6*%
X96020000Y-82100000D03*
D11*
X101100000Y-82100000D03*
D10*
X106180000Y-82100000D03*
D12*
X103640000Y-77020000D03*
X97290000Y-79560000D03*
%TD*%
D10*
%TO.C,SW5*%
X95920000Y-62900000D03*
D11*
X101000000Y-62900000D03*
D10*
X106080000Y-62900000D03*
D12*
X103540000Y-57820000D03*
X97190000Y-60360000D03*
%TD*%
D13*
%TO.C,U1*%
X64680250Y-33903500D03*
X64680250Y-36443500D03*
X64680250Y-38983500D03*
X64680250Y-41523500D03*
X64680250Y-44063500D03*
X64680250Y-46603500D03*
X64680250Y-49143500D03*
X79920250Y-49143500D03*
X79920250Y-46603500D03*
X79920250Y-44063500D03*
X79920250Y-41523500D03*
X79920250Y-38983500D03*
X79920250Y-36443500D03*
X79920250Y-33903500D03*
%TD*%
D10*
%TO.C,SW4*%
X76745250Y-82004750D03*
D11*
X81825250Y-82004750D03*
D10*
X86905250Y-82004750D03*
D12*
X84365250Y-76924750D03*
X78015250Y-79464750D03*
%TD*%
D10*
%TO.C,SW1*%
X57695250Y-62954750D03*
D11*
X62775250Y-62954750D03*
D10*
X67855250Y-62954750D03*
D12*
X65315250Y-57874750D03*
X58965250Y-60414750D03*
%TD*%
M02*
